
        <svg xmlns="http://www.w3.org/2000/svg" xmlns:xlink="http://www.w3.org/1999/xlink" version="1.1" width="3201.047120418848" 
        height="3201.047120418848" viewBox="0 0 3201.047120418848 3201.047120418848">
			
			<g transform="scale(10.052356020942408) translate(10, 10)">
				<defs id="SvgjsDefs12245"><linearGradient id="SvgjsLinearGradient12252"><stop id="SvgjsStop12253" stop-color="#616161" offset="0"></stop><stop id="SvgjsStop12254" stop-color="#e6e7e8" offset="0.5"></stop><stop id="SvgjsStop12255" stop-color="#616161" offset="1"></stop></linearGradient><linearGradient id="SvgjsLinearGradient12256"><stop id="SvgjsStop12257" stop-color="#616161" offset="0"></stop><stop id="SvgjsStop12258" stop-color="#e6e7e8" offset="0.5"></stop><stop id="SvgjsStop12259" stop-color="#616161" offset="1"></stop></linearGradient></defs><g id="SvgjsG12246" featureKey="rootContainer" transform="matrix(2.8154481132075473,0,0,2.8154481132075473,0,0)" fill="#111111"><rect xmlns="http://www.w3.org/2000/svg" width="106" height="106" rx="15" ry="15"></rect></g><g id="SvgjsG12247" featureKey="symbolFeature-0" transform="matrix(2.911370643443862,0,0,2.911370643443862,54.302671075909196,-5.3262735926560225)" fill="url(#SvgjsLinearGradient12252)"><path xmlns="http://www.w3.org/2000/svg" d="M62.917,37.044H52.815c-0.671-2.627-3.05-4.578-5.883-4.578c-3.352,0-6.079,2.728-6.079,6.079  c0,3.351,2.728,6.077,6.079,6.077c2.833,0,5.213-1.951,5.884-4.578h10.101c0.828,0,1.5-0.672,1.5-1.5S63.745,37.044,62.917,37.044z   M46.933,41.622c-1.698,0-3.079-1.381-3.079-3.077c0-1.698,1.381-3.079,3.079-3.079c1.697,0,3.078,1.381,3.078,3.079  C50.011,40.241,48.63,41.622,46.933,41.622z"></path><path xmlns="http://www.w3.org/2000/svg" d="M47.63,23.206c0.733-0.386,1.015-1.293,0.629-2.026c-0.386-0.734-1.294-1.016-2.025-0.629l-24.709,13  c-0.982-0.683-2.172-1.085-3.456-1.085c-2.833,0-5.213,1.951-5.884,4.578H2.083c-0.829,0-1.5,0.672-1.5,1.5s0.671,1.5,1.5,1.5  h10.101c0.67,2.627,3.051,4.578,5.884,4.578c3.352,0,6.079-2.727,6.079-6.077c0-0.954-0.227-1.854-0.621-2.658L47.63,23.206z   M18.068,41.622c-1.698,0-3.079-1.381-3.079-3.077c0-1.698,1.381-3.079,3.079-3.079s3.079,1.381,3.079,3.079  C21.147,40.241,19.766,41.622,18.068,41.622z"></path></g><g id="SvgjsG12248" featureKey="nameFeature-0" transform="matrix(3.253017283352403,0,0,3.253017283352403,67,113.38069905803661)" fill="url(#SvgjsLinearGradient12256)"><path d="M0 40 l0 -30 l14.72 0 l0 3.76 l-11.36 0 l0 9.24 l11.28 0 l0 3.32 l-11.28 0 l0 9.92 l11.64 0 l0 3.76 l-15 0 z M31.171000000000003 32.08 c-0.02668 1.36 -0.15992 2.5533 -0.39992 3.58 s-0.63332 1.8867 -1.18 2.58 s-1.2734 1.22 -2.18 1.58 s-2.04 0.54 -3.4 0.54 c-2.3733 0 -4.1132 -0.71332 -5.22 -2.14 s-1.66 -3.4867 -1.66 -6.18 l0 -14 c0 -2.7467 0.56 -4.82 1.68 -6.22 s2.9733 -2.1 5.56 -2.1 c2.4 0 4.12 0.71332 5.16 2.14 s1.5867 3.4734 1.64 6.14 l0.04 2.56 l-3.12 0 l-0.04 -3 c0 -0.58668 -0.05332 -1.1667 -0.16 -1.74 s-0.29336 -1.0733 -0.56004 -1.5 s-0.64 -0.77336 -1.12 -1.04 s-1.12 -0.4 -1.92 -0.4 c-1.5733 0 -2.6333 0.46 -3.18 1.38 s-0.82 2.18 -0.82 3.78 l0.04 14.2 c0 1.6267 0.26 2.8334 0.78 3.62 s1.4867 1.18 2.9 1.18 c0.8 0 1.46 -0.10668 1.98 -0.32 s0.93332 -0.52 1.24 -0.92 s0.52 -0.89332 0.64 -1.48 s0.18 -1.2534 0.18 -2 l0.04 -3.24 l3.12 0 z M43.14200000000001 40.36 c-1.3333 0 -2.5199 -0.2 -3.5599 -0.6 s-1.9 -1.0267 -2.58 -1.88 s-1.18 -1.96 -1.5 -3.32 s-0.44 -2.9867 -0.36 -4.88 l3.68 0 c0 0.96 0.02668 1.8867 0.08 2.78 s0.20664 1.68 0.45996 2.36 s0.64664 1.22 1.18 1.62 s1.2933 0.6 2.28 0.6 c0.85332 0 1.5666 -0.12668 2.14 -0.38 s1.0333 -0.59332 1.38 -1.02 s0.59336 -0.93336 0.74004 -1.52 s0.22 -1.2134 0.22 -1.88 c-0.02668 -1.44 -0.5 -2.5867 -1.42 -3.44 s-2.1 -1.5866 -3.54 -2.2 c-1.1733 -0.48 -2.22 -0.96668 -3.14 -1.46 s-1.6867 -1.06 -2.3 -1.7 s-1.08 -1.3867 -1.4 -2.24 s-0.48 -1.9066 -0.48 -3.16 c0 -2.7733 0.70668 -4.8532 2.12 -6.24 s3.4133 -2.08 6 -2.08 c2.2667 0 4.06 0.70668 5.38 2.12 s1.98 3.48 1.98 6.2 l0 2.84 l-3.52 0 l0 -3.04 c0 -1.44 -0.31332 -2.6 -0.94 -3.48 s-1.62 -1.32 -2.98 -1.32 c-1.68 0 -2.8667 0.44 -3.56 1.32 s-1.0133 2.12 -0.96 3.72 c0.02668 0.66668 0.14 1.24 0.34 1.72 s0.48668 0.9 0.86 1.26 s0.82664 0.69332 1.36 1 s1.16 0.62 1.88 0.94 c0.88 0.4 1.7533 0.82668 2.62 1.28 s1.6734 1 2.42 1.64 c0.77332 0.69332 1.4266 1.5333 1.96 2.52 s0.8 2.1867 0.8 3.6 c0 2.72 -0.68 4.7868 -2.04 6.2 s-3.2267 2.12 -5.6 2.12 z"></path></g>
			</g>
		</svg>
	